<svg width="24" height="24" viewBox="0 0 24 24" fill="none" xmlns="http://www.w3.org/2000/svg">
<path d="M5 10H7C9 10 10 9 10 7V5C10 3 9 2 7 2H5C3 2 2 3 2 5V7C2 9 3 10 5 10Z" stroke="white" stroke-width="1.5" stroke-miterlimit="10" stroke-linecap="round" stroke-linejoin="round"/>
<path d="M17 10H19C21 10 22 9 22 7V5C22 3 21 2 19 2H17C15 2 14 3 14 5V7C14 9 15 10 17 10Z" fill="#FF5959" stroke="#FF5959" stroke-width="1.5" stroke-miterlimit="10" stroke-linecap="round" stroke-linejoin="round"/>
<path d="M17 22H19C21 22 22 21 22 19V17C22 15 21 14 19 14H17C15 14 14 15 14 17V19C14 21 15 22 17 22Z" stroke="white" stroke-width="1.5" stroke-miterlimit="10" stroke-linecap="round" stroke-linejoin="round"/>
<path d="M5 22H7C9 22 10 21 10 19V17C10 15 9 14 7 14H5C3 14 2 15 2 17V19C2 21 3 22 5 22Z" stroke="white" stroke-width="1.5" stroke-miterlimit="10" stroke-linecap="round" stroke-linejoin="round"/>
<path d="M16.7861 4.10327L16.8105 4.16675L18.1309 7.61987L18.1836 7.75562H17.498L17.4746 7.69019L17.1699 6.85229H15.8652L15.5615 7.69019L15.5371 7.75562H14.8545L14.9062 7.61987L16.2227 4.16772L16.2471 4.10327H16.7861ZM20.1328 4.22339C20.3321 4.30275 20.505 4.41939 20.6494 4.57202C20.796 4.72375 20.9083 4.90707 20.9854 5.11987H20.9844C21.0617 5.33167 21.0996 5.56767 21.0996 5.8269V6.03394C21.0996 6.29333 21.0626 6.53057 20.9854 6.7439H20.9844C20.9072 6.95531 20.7956 7.13821 20.6475 7.28979L20.6465 7.28882C20.5001 7.44017 20.3243 7.55671 20.1191 7.63745H20.1182C19.9136 7.71689 19.6851 7.75562 19.4346 7.75562H18.4004V4.10327H19.4775C19.7144 4.10328 19.9333 4.14245 20.1328 4.22339ZM19.0576 7.18335H19.4346C19.6674 7.18335 19.8533 7.13502 19.998 7.04468L20.1016 6.96851C20.198 6.88482 20.2741 6.77994 20.3301 6.65308V6.6521C20.407 6.47936 20.4472 6.27413 20.4473 6.03394V5.823C20.4473 5.6332 20.4237 5.46779 20.3799 5.32593V5.32495C20.3359 5.18151 20.2726 5.06421 20.1914 4.97046V4.96948C20.1305 4.89811 20.0591 4.84024 19.9775 4.79468L19.8916 4.75269C19.7749 4.70347 19.6375 4.6775 19.4775 4.67749H19.0576V7.18335ZM16.0742 6.2771H16.96L16.5166 5.05835L16.0742 6.2771Z" fill="#0E0E0E" stroke="#0E0E0E" stroke-width="0.2"/>
</svg>
